<svg xmlns="http://www.w3.org/2000/svg" width="32" height="24.889" viewBox="0 0 32 24.889"><path d="m11.556 11.428 1.178 2.35h-2.356zm11.556 2.35a1.333 1.333 0 1 1-1.333-1.333 1.33 1.33 0 0 1 1.332 1.333zM28.444 0A3.557 3.557 0 0 1 32 3.556v17.777a3.559 3.559 0 0 1-3.556 3.556H3.556A3.557 3.557 0 0 1 0 21.333V3.556A3.555 3.555 0 0 1 3.556 0zM12.75 7.85a1.335 1.335 0 0 0-2.389 0l-4 8a1.334 1.334 0 0 0 2.389 1.189l.294-.594h5.022l.294.594a1.335 1.335 0 1 0 2.39-1.189zm10.361 2.156a3.931 3.931 0 0 0-1.333-.228 4 4 0 1 0 0 8 3.412 3.412 0 0 0 1.722-.439 1.212 1.212 0 0 0 .944.439 1.33 1.33 0 0 0 1.333-1.333v-8a1.333 1.333 0 0 0-2.667 0z"></path></svg>