<svg xmlns="http://www.w3.org/2000/svg" width="28" height="28" viewBox="0 0 28 28"><path d="M25 0H3a3 3 0 0 0-3 3v22a3 3 0 0 0 3 3h22a3 3 0 0 0 3-3V3a3 3 0 0 0-3-3zM7.938 22.031a1.25 1.25 0 1 1-2.163-1.25l.894-1.544a2.145 2.145 0 0 1 2.475.712zm8.681-3.369H5.25a1.25 1.25 0 0 1 0-2.5h3.188l4.087-7.075-1.281-2.213a1.25 1.25 0 0 1 2.163-1.25l.556.963.556-.963a1.249 1.249 0 1 1 2.162 1.25l-5.362 9.287H15.2a1.715 1.715 0 0 1 1.419 2.5zm6.131 0h-1.812l1.225 2.119A1.25 1.25 0 1 1 20 22.031q-3.084-5.334-4.625-8.006a3.458 3.458 0 0 1 .444-4.238l3.681 6.375h3.25a1.25 1.25 0 0 1 0 2.5z"></path></svg>