<svg xmlns="http://www.w3.org/2000/svg" width="28" height="24.5" viewBox="0 0 28 24.5"><path d="M26.25 0H7a1.749 1.749 0 0 0-1.75 1.75v18.375a.875.875 0 0 1-1.75 0V3.5H1.75A1.749 1.749 0 0 0 0 5.25V21a3.5 3.5 0 0 0 3.5 3.5h21A3.5 3.5 0 0 0 28 21V1.75A1.749 1.749 0 0 0 26.25 0zm-2.625 21h-14a.875.875 0 0 1 0-1.75h14a.875.875 0 0 1 0 1.75zm0-5.25h-14a.875.875 0 0 1 0-1.75h14a.875.875 0 0 1 0 1.75zm.875-6.125a.878.878 0 0 1-.875.875h-14a.878.878 0 0 1-.875-.875v-5.25a.878.878 0 0 1 .875-.875h14a.878.878 0 0 1 .875.875z"></path></svg>