<svg width="20" height="10" viewBox="0 0 20 10" fill="none" xmlns="http://www.w3.org/2000/svg"><path d="M15.0259 9.6387C13.2412 9.6387 11.658 8.74676 9.9021 6.93411C8.11742 8.80431 6.47666 9.6387 4.74955 9.6387C2.04375 9.6387 0 7.68219 0 4.83374C0 1.98528 2.04375 0 4.80712 0C6.47666 0 7.97349 0.834395 9.87331 2.79091C11.8019 0.805622 13.2412 0 14.9971 0C17.7029 0 19.8042 1.92774 19.8042 4.83374C19.8042 7.65342 17.7604 9.6387 15.0259 9.6387ZM14.8819 6.96288C16.2348 6.96288 16.9832 5.95585 16.9832 4.77619C16.9832 3.65407 16.2348 2.67582 14.8819 2.67582C14.0472 2.67582 13.2412 3.16495 11.7443 4.83374C13.1836 6.38744 13.9608 6.96288 14.8819 6.96288ZM4.92226 6.96288C5.78582 6.96288 6.5918 6.41621 8.03106 4.83374C6.62059 3.25126 5.8146 2.67582 4.92226 2.67582C3.56936 2.67582 2.84973 3.6253 2.84973 4.77619C2.84973 5.98463 3.59815 6.96288 4.92226 6.96288Z" fill="#FF4B4B"/></svg>