<svg version="1.0" xmlns="http://www.w3.org/2000/svg"
 width="50" height="50" viewBox="0 0 1024.000000 1024.000000"
 preserveAspectRatio="xMidYMid meet" fill="#b20202">

<g transform="translate(0.000000,1024.000000) scale(0.100000,-0.100000)" fill="#b20202" stroke="none">
<path d="M5295 7999 c-90 -12 -253 -52 -384 -95 -129 -42 -258 -103 -399 -187
-59 -36 -136 -79 -172 -97 -183 -92 -332 -221 -482 -420 -47 -63 -169 -200
-271 -305 -285 -295 -467 -496 -488 -540 -24 -51 -25 -201 -4 -294 30 -125
111 -227 223 -279 53 -25 67 -27 192 -27 l134 -1 64 -74 c112 -131 179 -299
189 -473 5 -92 -6 -217 -23 -262 -21 -54 139 85 219 190 21 28 55 73 75 100
52 69 120 219 132 291 14 78 14 295 0 363 -5 29 -10 55 -10 57 0 2 20 4 44 4
24 0 63 7 86 15 24 8 45 13 47 11 2 -2 11 -28 18 -57 65 -245 30 -589 -102
-1019 -120 -389 -160 -657 -150 -995 7 -215 14 -264 76 -540 57 -249 67 -281
111 -355 22 -36 65 -139 96 -230 31 -91 64 -181 74 -200 10 -19 30 -69 44
-110 15 -41 41 -99 58 -129 l31 -53 41 78 c23 44 54 97 69 118 15 21 27 44 27
51 0 11 21 42 85 127 70 93 109 144 115 148 4 3 20 25 35 50 32 51 59 86 165
210 41 48 98 116 125 150 28 34 129 152 225 262 96 109 192 220 213 246 125
157 182 232 237 317 19 29 60 91 91 137 31 45 66 105 78 133 12 27 28 57 37
66 8 9 25 43 38 77 14 34 33 74 44 89 38 56 110 268 142 423 28 132 33 183 37
343 8 276 -22 481 -107 739 -91 276 -261 582 -457 826 -83 103 -223 233 -385
361 -58 46 -112 95 -119 109 -20 36 10 55 81 50 97 -7 395 -146 541 -253 181
-132 294 -277 388 -499 31 -73 64 -143 73 -157 17 -23 17 -22 17 61 2 274
-115 556 -310 751 -34 33 -59 62 -56 65 5 6 64 -20 212 -91 174 -84 336 -220
433 -362 95 -140 208 -423 233 -583 23 -149 47 -102 56 109 7 186 -11 306 -72
489 -80 239 -201 430 -392 620 -213 212 -489 357 -813 429 -95 21 -147 26
-300 28 -102 2 -216 0 -255 -6z m443 -175 c41 -5 42 -6 41 -42 -1 -20 -6 -66
-13 -102 l-11 -65 -90 -3 c-49 -2 -103 -7 -120 -11 -30 -7 -31 -6 -92 103 -35
61 -59 114 -55 118 15 15 223 17 340 2z m-471 -86 c31 -52 66 -162 55 -172 -3
-3 -15 -6 -28 -6 -12 0 -52 -13 -89 -30 -37 -16 -78 -30 -92 -30 -17 0 -48 21
-96 66 -40 36 -87 73 -105 81 -18 7 -32 19 -29 26 7 24 265 115 327 116 20 1
32 -10 57 -51z m845 -13 c37 -19 74 -35 83 -35 19 0 19 -15 -2 -79 -16 -51
-29 -63 -39 -36 -7 18 -69 42 -154 59 l-65 13 -3 58 c-4 84 -3 86 60 70 29 -8
83 -30 120 -50z m-1247 -155 c60 -102 73 -147 49 -165 -16 -11 -13 -17 35 -68
29 -31 62 -59 72 -62 10 -4 46 1 80 9 33 9 65 16 71 16 21 0 176 -167 201
-216 32 -63 104 -308 117 -399 14 -103 12 -267 -5 -370 -12 -66 -29 -117 -64
-190 -47 -98 -141 -243 -178 -277 -18 -17 -21 -16 -65 30 -164 170 -238 357
-238 604 0 179 18 306 60 427 22 63 40 123 40 133 0 54 -173 59 -201 5 -25
-46 -59 -195 -79 -350 -25 -189 -37 -228 -87 -288 -31 -37 -32 -40 -8 -19 49
42 52 45 58 60 3 8 6 -1 7 -20 0 -19 6 -67 13 -107 l13 -72 -99 -31 c-127 -40
-216 -57 -394 -73 -110 -10 -145 -10 -158 -1 -15 11 -15 13 2 17 10 3 3 5 -16
6 -56 2 -317 -68 -434 -116 -138 -56 -221 -75 -279 -61 -82 18 -106 62 -109
203 -2 77 -1 81 30 114 18 19 41 51 52 70 34 63 85 120 331 372 132 135 258
272 281 305 57 82 124 162 173 207 41 37 64 54 176 129 66 44 206 118 223 118
7 0 41 19 76 42 87 56 167 98 189 98 12 0 34 -27 65 -80z m1555 -16 c69 -46
117 -91 136 -126 8 -16 12 -28 9 -28 -3 0 -29 16 -58 35 -28 19 -80 44 -114
56 -35 11 -63 24 -63 28 0 16 22 71 29 71 3 0 31 -16 61 -36z m-675 -719 c27
-39 38 -69 50 -132 7 -45 18 -90 23 -100 23 -42 83 -245 97 -328 18 -106 21
-353 5 -480 -6 -48 -26 -148 -45 -221 -83 -325 -230 -610 -508 -989 -164 -222
-214 -292 -312 -430 -39 -55 -88 -122 -109 -149 -20 -27 -48 -70 -61 -96 -13
-26 -48 -83 -78 -126 -79 -115 -137 -213 -216 -365 -38 -74 -77 -135 -85 -137
-9 -2 -16 -2 -16 0 0 2 -9 50 -21 108 -14 72 -23 174 -29 325 -5 121 -11 227
-15 236 -11 28 14 342 39 490 24 138 62 289 126 499 43 139 109 436 120 543
14 134 12 329 -5 432 -15 93 -12 104 26 105 9 0 35 6 57 14 l40 14 31 -63 c18
-35 52 -91 76 -123 48 -64 269 -282 286 -282 12 0 97 90 200 212 95 111 139
173 162 223 10 22 31 61 48 86 52 82 74 205 73 414 -1 148 -5 198 -23 280 -13
55 -25 114 -28 130 l-5 30 31 -35 c17 -19 46 -58 66 -85z m-1639 -1059 c15
-91 16 -124 7 -206 -6 -53 -20 -117 -31 -141 l-19 -44 -17 60 c-38 141 -64
204 -114 284 -29 47 -54 90 -55 95 -2 11 196 77 205 68 3 -4 14 -56 24 -116z"/>
<path d="M5538 7664 c-16 -8 -28 -19 -28 -25 0 -5 12 -2 27 8 18 12 56 20 117
24 l91 6 -90 1 c-63 1 -98 -3 -117 -14z"/>
<path d="M5235 7619 c-61 -30 -67 -43 -7 -16 29 14 56 28 59 31 12 12 -13 5
-52 -15z"/>
<path d="M5145 7570 c-3 -6 1 -7 9 -4 18 7 21 14 7 14 -6 0 -13 -4 -16 -10z"/>
<path d="M5105 7550 c-3 -6 1 -7 9 -4 18 7 21 14 7 14 -6 0 -13 -4 -16 -10z"/>
<path d="M4335 7108 c-88 -31 -160 -109 -207 -219 -40 -97 -37 -102 54 -78 40
10 82 19 94 19 42 0 125 32 158 60 18 16 57 65 87 107 29 43 58 81 63 86 7 5
4 13 -8 22 -24 18 -193 20 -241 3z"/>
<path d="M5244 6025 c0 -82 2 -115 3 -72 2 43 2 110 0 150 -1 40 -3 5 -3 -78z"/>
<path d="M5372 5319 c-64 -54 -248 -275 -282 -338 -14 -28 -6 -39 46 -62 24
-11 47 -26 52 -35 6 -11 19 -4 61 38 57 58 115 141 179 259 36 66 42 84 42
137 0 44 -4 62 -13 62 -7 0 -46 -28 -85 -61z"/>
<path d="M5002 4843 c-42 -16 -319 -438 -389 -593 -38 -85 -113 -292 -113
-311 0 -10 5 -21 10 -24 6 -3 10 -21 11 -38 0 -24 2 -27 8 -14 4 10 11 19 16
19 20 2 84 48 102 75 11 15 57 98 103 183 46 85 93 173 105 195 30 54 126 199
191 288 34 47 95 141 112 173 9 17 7 20 -14 22 -14 1 -34 7 -46 13 -23 12 -76
19 -96 12z"/>
</g>
</svg>
