<svg xmlns="http://www.w3.org/2000/svg" width="40" height="28" viewBox="0 0 40 28"><path d="M11.5 3.5A3.5 3.5 0 1 1 8 0a3.5 3.5 0 0 1 3.5 3.5zm1.525 6.769A8.984 8.984 0 0 0 10 17a8.647 8.647 0 0 0 2 5.656V24a2 2 0 0 1-2 2H6a2 2 0 0 1-2-2v-1.675A7 7 0 0 1 7 9h2a7.1 7.1 0 0 1 4.025 1.269zM4 13.356a3.995 3.995 0 0 0 0 5.288zM28 24v-1.344a9 9 0 0 0-1.025-12.387A6.97 6.97 0 0 1 31 9h2a7 7 0 0 1 3 13.325V24a2 2 0 0 1-2 2h-4a2 2 0 0 1-2-2zm8-5.356a3.995 3.995 0 0 0 0-5.288zM35.5 3.5A3.5 3.5 0 1 1 32 0a3.5 3.5 0 0 1 3.5 3.5zM16 4a4 4 0 1 1 4 4 4 4 0 0 1-4-4zm12 13a7 7 0 0 1-4 6.325V26a2 2 0 0 1-2 2h-4a2 2 0 0 1-2-2v-2.675A7 7 0 0 1 19 10h2a7 7 0 0 1 7 7zm-12 2.644v-5.288a3.995 3.995 0 0 0 0 5.287zm8-5.287v5.287a3.995 3.995 0 0 0 0-5.287z"></path></svg>