<svg xmlns="http://www.w3.org/2000/svg" width="30" height="30" viewBox="0 0 30 30"><path d="M28.125 10.524A3.85 3.85 0 0 1 30 14.063a3.85 3.85 0 0 1-1.875 3.537v8.65a1.873 1.873 0 0 1-3.2 1.324l-2.561-2.607a14.949 14.949 0 0 0-10.604-4.342h-.51v7.5A1.873 1.873 0 0 1 9.375 30h-3.75a1.874 1.874 0 0 1-1.875-1.875v-7.5A3.752 3.752 0 0 1 0 16.875V11.25A3.752 3.752 0 0 1 3.75 7.5h8.01a15 15 0 0 0 10.605-4.393L24.926.549a1.875 1.875 0 0 1 3.2 1.326zm-16.365.726h-.51v5.625h.51a18.742 18.742 0 0 1 12.615 4.881V6.369A18.742 18.742 0 0 1 11.76 11.25z"></path></svg>